<?xml version="1.0" encoding="iso-8859-1"?>
<!-- Generator: Adobe Illustrator 19.0.0, SVG Export Plug-In . SVG Version: 6.00 Build 0)  -->
<svg version="1.1" id="Capa_1" xmlns="http://www.w3.org/2000/svg" xmlns:xlink="http://www.w3.org/1999/xlink" x="0px" y="0px"
	 viewBox="0 0 60 60" style="enable-background:new 0 0 60 60;" xml:space="preserve">
<g>
	<g>
		<path d="M4.037,51h28c1.35,0,2.621-0.374,3.675-1.082l17.121-17.094C53.585,32.071,54,31.067,54,29.996
			c0-1.07-0.415-2.075-1.168-2.828C52.079,26.415,51.074,26,50.004,26c-1.071,0-2.075,0.415-2.828,1.168L33.959,40.385
			l12.667-24.931c0.011-0.023,0.01-0.047,0.019-0.07c0.623-0.709,1.718-0.89,2.612-0.372c0.495,0.286,0.854,0.738,1.008,1.273
			c0.149,0.521,0.087,1.059-0.177,1.516c-0.091,0.157-0.134,0.329-0.134,0.498c0,0.346,0.179,0.683,0.5,0.868
			c0.477,0.275,1.089,0.112,1.366-0.366c0.552-0.954,1.82-1.258,2.832-0.674c1.028,0.594,1.417,1.854,0.865,2.809
			c-0.276,0.479-0.112,1.09,0.366,1.366c0.157,0.091,0.329,0.134,0.499,0.134c0.346,0,0.682-0.179,0.867-0.5
			c0.001-0.001,0.001-0.003,0.002-0.004c1.791-3.104,2.223-6.674,1.214-10.051c-0.99-3.315-3.266-6.14-6.407-7.954
			c-6.555-3.784-14.543-1.805-18.189,4.505c-0.001,0.002-0.001,0.003-0.002,0.004c-0.276,0.479-0.112,1.09,0.366,1.366
			c0.479,0.276,1.089,0.111,1.366-0.366c0.551-0.956,1.836-1.25,2.865-0.655c0.496,0.286,0.854,0.738,1.008,1.273
			c0.15,0.521,0.088,1.061-0.175,1.517c-0.091,0.157-0.134,0.329-0.134,0.499c0,0.346,0.179,0.682,0.5,0.867
			c0.477,0.275,1.089,0.112,1.366-0.366c0.552-0.955,1.821-1.258,2.833-0.674c0.495,0.286,0.853,0.738,1.007,1.273
			c0.15,0.521,0.088,1.06-0.175,1.516c-0.072,0.124-0.106,0.258-0.12,0.393L30.386,43H4.037c-2.206,0-4,1.794-4,4S1.831,51,4.037,51
			z M44.862,10.163c-1.075-0.62-2.311-0.713-3.391-0.355c-0.021-0.103-0.047-0.206-0.076-0.309c-0.298-1.035-0.984-1.906-1.93-2.452
			l0,0c-0.458-0.264-0.943-0.434-1.433-0.516c3.494-2.924,8.635-3.41,13.028-0.873c4.394,2.537,6.543,7.231,5.758,11.72
			c-0.315-0.384-0.706-0.72-1.164-0.984c-0.662-0.382-1.385-0.563-2.094-0.563c-0.443,0-0.881,0.07-1.296,0.208
			c-0.021-0.103-0.047-0.206-0.076-0.309c-0.299-1.034-0.983-1.905-1.93-2.451c-1.076-0.62-2.312-0.713-3.391-0.355
			c-0.021-0.103-0.047-0.206-0.076-0.309C46.493,11.58,45.808,10.71,44.862,10.163z M4.037,45h28.135L48.59,28.582
			c0.749-0.752,2.075-0.75,2.828,0C51.793,28.958,52,29.46,52,29.996c0,0.537-0.206,1.039-0.582,1.414L34.52,48.308
			C33.811,48.761,32.955,49,32.037,49h-28c-1.103,0-2-0.897-2-2S2.934,45,4.037,45z"/>
		<path d="M58.362,54.948L55.414,52l-8.5-8.5l12.793-12.793c0.391-0.391,0.391-1.023,0-1.414s-1.023-0.391-1.414,0L35.586,52H1H0v5
			h57.513c0.022,0,0.042-0.008,0.064-0.01l0.717,0.717C58.488,57.902,58.744,58,59,58s0.512-0.098,0.707-0.293
			c0.391-0.391,0.391-1.023,0-1.414L58.362,54.948z M45.5,44.914L52.586,52H38.414L45.5,44.914z M2,55v-1h34.414h18.172l1,1H2z"/>
		<path d="M7,14h2.069c0.183,1.458,0.759,2.792,1.619,3.898l-1.467,1.466c-0.391,0.391-0.391,1.023,0,1.414
			c0.195,0.195,0.451,0.293,0.707,0.293s0.512-0.098,0.707-0.293l1.467-1.466c1.106,0.86,2.44,1.436,3.897,1.619V23
			c0,0.553,0.448,1,1,1s1-0.447,1-1v-2.069c1.457-0.183,2.791-0.759,3.897-1.619l1.467,1.466c0.195,0.195,0.451,0.293,0.707,0.293
			s0.512-0.098,0.707-0.293c0.391-0.391,0.391-1.023,0-1.414l-1.467-1.466c0.86-1.106,1.436-2.44,1.619-3.898H27
			c0.552,0,1-0.447,1-1s-0.448-1-1-1h-2.069c-0.183-1.458-0.759-2.792-1.619-3.898l1.467-1.466c0.391-0.391,0.391-1.023,0-1.414
			s-1.023-0.391-1.414,0l-1.467,1.466c-1.106-0.86-2.44-1.436-3.897-1.619V3c0-0.553-0.448-1-1-1s-1,0.447-1,1v2.069
			c-1.457,0.183-2.791,0.759-3.897,1.619l-1.467-1.466c-0.391-0.391-1.023-0.391-1.414,0s-0.391,1.023,0,1.414l1.467,1.466
			C9.828,9.208,9.252,10.542,9.069,12H7c-0.552,0-1,0.447-1,1S6.448,14,7,14z M17,7c3.309,0,6,2.691,6,6s-2.691,6-6,6s-6-2.691-6-6
			S13.691,7,17,7z"/>
	</g>
</g>
<g>
</g>
<g>
</g>
<g>
</g>
<g>
</g>
<g>
</g>
<g>
</g>
<g>
</g>
<g>
</g>
<g>
</g>
<g>
</g>
<g>
</g>
<g>
</g>
<g>
</g>
<g>
</g>
<g>
</g>
</svg>
