<?xml version="1.0" encoding="iso-8859-1"?>
<!-- Generator: Adobe Illustrator 19.0.0, SVG Export Plug-In . SVG Version: 6.00 Build 0)  -->
<svg version="1.1" id="Capa_1" xmlns="http://www.w3.org/2000/svg" xmlns:xlink="http://www.w3.org/1999/xlink" x="0px" y="0px"
	 viewBox="0 0 58.036 58.036" style="enable-background:new 0 0 58.036 58.036;" xml:space="preserve">
<g>
	<g>
		<path d="M43,26.018h-7c-0.552,0-1,0.448-1,1v8c0,0.553,0.448,1,1,1h7c0.552,0,1-0.447,1-1v-8C44,26.466,43.552,26.018,43,26.018z
			 M42,34.018h-5v-6h5V34.018z"/>
		<path d="M22,26.018h-7c-0.552,0-1,0.448-1,1v8c0,0.553,0.448,1,1,1h7c0.552,0,1-0.447,1-1v-8C23,26.466,22.552,26.018,22,26.018z
			 M21,34.018h-5v-6h5V34.018z"/>
		<path d="M55,41.018c0-14.336-11.664-26-26-26s-26,11.664-26,26H0v2h25h8h25.036v-2H55z M26,41.018v-15h6v15H26z M34,41.018v-16
			c0-0.552-0.448-1-1-1h-8c-0.552,0-1,0.448-1,1v16H5c0-13.233,10.767-24,24-24s24,10.767,24,24H34z"/>
	</g>
</g>
<g>
</g>
<g>
</g>
<g>
</g>
<g>
</g>
<g>
</g>
<g>
</g>
<g>
</g>
<g>
</g>
<g>
</g>
<g>
</g>
<g>
</g>
<g>
</g>
<g>
</g>
<g>
</g>
<g>
</g>
</svg>
