<?xml version="1.0" encoding="iso-8859-1"?>
<!-- Generator: Adobe Illustrator 18.0.0, SVG Export Plug-In . SVG Version: 6.00 Build 0)  -->
<!DOCTYPE svg PUBLIC "-//W3C//DTD SVG 1.1//EN" "http://www.w3.org/Graphics/SVG/1.1/DTD/svg11.dtd">
<svg version="1.1" id="Capa_1" xmlns="http://www.w3.org/2000/svg" xmlns:xlink="http://www.w3.org/1999/xlink" x="0px" y="0px"
	 viewBox="0 0 60 60" style="enable-background:new 0 0 60 60;" xml:space="preserve">
<g>
	<path d="M14.887,17.958c0,1.229,0.479,2.385,1.35,3.255c0.195,0.195,0.451,0.293,0.707,0.293c0.256,0,0.512-0.098,0.707-0.293
		c0.391-0.391,0.391-1.023,0-1.414c-0.492-0.492-0.764-1.146-0.764-1.841c0-0.695,0.271-1.35,0.764-1.842
		c0.87-0.87,1.35-2.026,1.35-3.256s-0.479-2.386-1.35-3.256c-0.391-0.391-1.024-0.391-1.414,0c-0.391,0.391-0.391,1.023,0,1.414
		C16.729,11.511,17,12.166,17,12.861s-0.271,1.35-0.764,1.842C15.366,15.573,14.887,16.729,14.887,17.958z"/>
	<path d="M36.887,17.958c0,1.229,0.479,2.385,1.35,3.255c0.195,0.195,0.451,0.293,0.707,0.293c0.256,0,0.512-0.098,0.707-0.293
		c0.391-0.391,0.391-1.023,0-1.414c-0.492-0.492-0.764-1.146-0.764-1.841c0-0.695,0.271-1.35,0.764-1.842
		c0.87-0.87,1.35-2.026,1.35-3.256s-0.479-2.386-1.35-3.256c-0.391-0.391-1.024-0.391-1.414,0c-0.391,0.391-0.391,1.023,0,1.414
		C38.729,11.511,39,12.166,39,12.861s-0.271,1.35-0.764,1.842C37.366,15.573,36.887,16.729,36.887,17.958z"/>
	<path d="M25.459,14.077c0,1.563,0.609,3.031,1.715,4.137c0.195,0.195,0.451,0.293,0.707,0.293s0.512-0.098,0.708-0.293
		c0.39-0.391,0.39-1.023,0-1.414c-0.729-0.729-1.129-1.695-1.129-2.723c0-1.028,0.401-1.995,1.129-2.724
		c1.106-1.105,1.715-2.574,1.715-4.137s-0.609-3.031-1.715-4.138c-0.391-0.391-1.023-0.391-1.414,0s-0.391,1.023,0,1.414
		c0.728,0.729,1.129,1.695,1.129,2.724c0,1.027-0.401,1.994-1.129,2.723C26.068,11.045,25.459,12.514,25.459,14.077z"/>
	<path d="M46.947,41.775c0.019,0.001,0.034,0.011,0.053,0.011c7.411,0,13-5.159,13-12c0-0.553-0.448-1-1-1h-9.044
		c0.028-0.657,0.044-1.323,0.044-2c0-0.553-0.448-1-1-1H22v-1c0-0.553-0.448-1-1-1s-1,0.447-1,1v1H7c-0.552,0-1,0.447-1,1
		c0,9.706,2.943,17.381,8.351,22H1c-0.552,0-1,0.447-1,1c0,1.515,7.166,4.159,7.238,4.186c4.115,1.479,11.058,3.243,20.762,3.243
		c18.583,0,27.242-6.359,27.602-6.63c0.344-0.259,0.483-0.708,0.347-1.116c-0.136-0.407-0.518-0.683-0.948-0.683H41.649
		C43.828,46.925,45.6,44.561,46.947,41.775z M57.953,30.786c-0.477,5.025-4.546,8.638-10.122,8.968
		c1.024-2.673,1.694-5.679,1.992-8.968H57.953z M28,55.214c-11.822,0-19.403-2.605-23.258-4.429h12.697h21.123H51.15
		C47.191,52.625,39.564,55.214,28,55.214z M17.72,48.786c-6.066-3.781-9.492-11.202-9.709-21H20v2h-2c-0.552,0-1,0.447-1,1v7.5
		c0,0.553,0.448,1,1,1h6c0.552,0,1-0.447,1-1v-7.5c0-0.553-0.448-1-1-1h-2v-2h25.989c-0.217,9.798-3.643,17.219-9.709,21H17.72z
		 M23,31.786v5.5h-4v-5.5H23z"/>
</g>
<g>
</g>
<g>
</g>
<g>
</g>
<g>
</g>
<g>
</g>
<g>
</g>
<g>
</g>
<g>
</g>
<g>
</g>
<g>
</g>
<g>
</g>
<g>
</g>
<g>
</g>
<g>
</g>
<g>
</g>
</svg>
