<?xml version='1.0' encoding='iso-8859-1'?>
<!DOCTYPE svg PUBLIC '-//W3C//DTD SVG 1.1//EN' 'http://www.w3.org/Graphics/SVG/1.1/DTD/svg11.dtd'>
<svg version="1.1" xmlns="http://www.w3.org/2000/svg" viewBox="0 0 249.302 249.302" xmlns:xlink="http://www.w3.org/1999/xlink" enable-background="new 0 0 249.302 249.302">
  <g>
    <path d="m201.828,104.373h-47.882c-0.281-1.684-0.626-3.271-1.033-4.788l18.781-3.572c3.352-0.638 5.851-3.457 6.081-6.861l2.551-37.678c0.28-4.133-2.843-7.71-6.976-7.989-4.134-0.282-7.711,2.843-7.989,6.976l-2.16,31.899-15.139,2.879c1.801-2.6 2.771-5.666 2.771-9.107 0-7.587-4.721-14.753-11.541-19.154l48.777-43.901c3.078-2.771 3.328-7.513 0.557-10.592-2.771-3.081-7.515-3.328-10.592-0.557l-53.382,48.046-53.385-48.047c-3.078-2.771-7.82-2.523-10.592,0.557-2.771,3.079-2.521,7.821 0.557,10.593l48.758,43.881c-6.838,4.398-11.574,11.576-11.574,19.174 0,3.437 0.969,6.498 2.764,9.096l-15.078-2.867-2.158-31.898c-0.279-4.133-3.865-7.255-7.988-6.977-4.133,0.279-7.257,3.855-6.977,7.988l2.549,37.678c0.229,3.404 2.729,6.225 6.081,6.862l18.784,3.573c-0.406,1.516-0.752,3.104-1.033,4.787h-47.886c-4.142,0-7.5,3.357-7.5,7.5 0,4.143 3.358,7.5 7.5,7.5h46.643c-0.043,1.513-0.077,3.063-0.1,4.676l-29.19,43.944c-1.565,2.355-1.672,5.391-0.276,7.851l18.802,33.138-11.828,30.073c-1.517,3.854 0.38,8.209 4.234,9.725 0.901,0.355 1.83,0.523 2.743,0.523 2.992,0 5.82-1.804 6.981-4.757l13.139-33.405c0.829-2.107 0.661-4.477-0.456-6.446l-15.547-27.402 15.778-3.455c3.136,14.119 7.918,27.507 14.285,35.242l-14.108,12.699c-3.079,2.77-3.328,7.513-0.557,10.592 1.48,1.645 3.524,2.482 5.576,2.482 1.788,0 3.582-0.636 5.016-1.926l8.543-7.689v16.561c0,4.143 3.357,7.5 7.5,7.5s7.5-3.357 7.5-7.5v-16.564l8.544,7.69c1.434,1.291 3.228,1.926 5.016,1.926 2.052,0 4.096-0.837 5.576-2.482 2.771-3.079 2.521-7.821-0.557-10.592l-14.108-12.699c6.367-7.735 11.15-21.122 14.285-35.242l15.777,3.455-15.547,27.402c-1.117,1.97-1.285,4.339-0.456,6.446l13.139,33.405c1.161,2.954 3.989,4.757 6.982,4.757 0.913,0 1.842-0.168 2.743-0.523 3.854-1.516 5.751-5.87 4.234-9.725l-11.828-30.073 18.802-33.138c1.396-2.46 1.289-5.495-0.276-7.851l-29.189-43.942c-0.022-1.612-0.057-3.164-0.1-4.678h46.639c4.142,0 7.5-3.357 7.5-7.5 0-4.142-3.358-7.499-7.5-7.499zm-77.201-36.832c6.585,0 11.206,5.572 11.206,8.59 0,1.644-4.603,3.476-11.206,3.476-6.607,0-11.212-1.832-11.212-3.476 1.42109e-14-3.018 4.625-8.59 11.212-8.59zm-37.047,93.309l7.098-10.684c0.271,2.888 0.622,5.87 1.051,8.899l-8.149,1.785zm46.426,18.463c-3.689,12.485-7.387,18.511-9.353,20.773-1.967-2.264-5.663-8.291-9.354-20.775-4.025-13.62-6.334-29.3-6.334-43.018 0-37.378 1.612-41.661 15.686-41.661 14.075,0 15.687,4.283 15.687,41.661 0.001,13.722-2.307,29.402-6.332,43.02zm20.622-29.145l7.096,10.682-8.146-1.784c0.428-3.029 0.779-6.011 1.05-8.898z"/>
  </g>
</svg>
