<?xml version="1.0" encoding="iso-8859-1"?>
<!-- Generator: Adobe Illustrator 18.0.0, SVG Export Plug-In . SVG Version: 6.00 Build 0)  -->
<!DOCTYPE svg PUBLIC "-//W3C//DTD SVG 1.1//EN" "http://www.w3.org/Graphics/SVG/1.1/DTD/svg11.dtd">
<svg version="1.1" id="Capa_1" xmlns="http://www.w3.org/2000/svg" xmlns:xlink="http://www.w3.org/1999/xlink" x="0px" y="0px"
	 viewBox="0 0 161.503 161.503" style="enable-background:new 0 0 161.503 161.503;" xml:space="preserve">
<g>
	<path d="M118.671,0h-75.84c-15.715,0-28.5,12.785-28.5,28.5v122.047c0,2.761,2.238,5,5,5h9.242c-0.06,0.31-0.096,0.629-0.096,0.956
		c0,2.761,2.238,5,5,5h14.89c2.762,0,5-2.239,5-5c0-0.328-0.036-0.646-0.096-0.956h54.962c-0.06,0.31-0.096,0.629-0.096,0.956
		c0,2.761,2.238,5,5,5h14.89c2.762,0,5-2.239,5-5c0-0.328-0.036-0.646-0.096-0.956h9.242c2.762,0,5-2.239,5-5V28.5
		C147.171,12.785,134.386,0,118.671,0z M42.832,10h75.84c10.201,0,18.5,8.299,18.5,18.5v7.235H24.357
		c-0.009,0-0.017,0.002-0.025,0.003V28.5C24.332,18.299,32.63,10,42.832,10z M68.11,77.051h25.283v26.571H68.11V77.051z
		 M93.393,71.051H68.11v-0.469c0-1.564,1.272-2.837,2.837-2.837h19.609c1.564,0,2.837,1.272,2.837,2.837V71.051z M24.332,145.547
		V45.733c0.009,0,0.017,0.003,0.025,0.003h53.395v12.056c-1.652,0.132-2.956,1.499-2.956,3.185v0.769h-3.849
		c-4.873,0-8.837,3.964-8.837,8.837v36.041c0,1.657,1.343,3,3,3h31.283c1.657,0,3-1.343,3-3V70.582c0-4.873-3.964-8.837-8.837-8.837
		h-3.849v-0.769c0-1.686-1.304-3.053-2.956-3.185V45.735h53.42v99.812H24.332z"/>
	<rect x="104.761" y="25.162" width="8.088" height="8.089"/>
	<rect x="117.679" y="25.162" width="8.088" height="8.089"/>
</g>
<g>
</g>
<g>
</g>
<g>
</g>
<g>
</g>
<g>
</g>
<g>
</g>
<g>
</g>
<g>
</g>
<g>
</g>
<g>
</g>
<g>
</g>
<g>
</g>
<g>
</g>
<g>
</g>
<g>
</g>
</svg>
