<?xml version="1.0" encoding="iso-8859-1"?>
<!-- Generator: Adobe Illustrator 16.0.0, SVG Export Plug-In . SVG Version: 6.00 Build 0)  -->
<!DOCTYPE svg PUBLIC "-//W3C//DTD SVG 1.1//EN" "http://www.w3.org/Graphics/SVG/1.1/DTD/svg11.dtd">
<svg version="1.1" id="Capa_1" xmlns="http://www.w3.org/2000/svg" xmlns:xlink="http://www.w3.org/1999/xlink" x="0px" y="0px"
	 width="511.079px" height="511.08px" viewBox="0 0 511.079 511.08" style="enable-background:new 0 0 511.079 511.08;"
	 xml:space="preserve">
<g>
	<path d="M460.173,217.1c6.299-3.8,8.298-10.416,8.433-19.04h0.5c3.128,0,5.669-2.539,5.669-5.661v-89.541
		c0-3.133-2.541-5.658-5.669-5.658h-30.689c-5.94-4.575-12.649-8.198-19.905-10.649l1.284-2.911c1.265-2.87-0.032-6.205-2.895-7.464
		l-5.188-2.298c-2.856-1.262-6.2,0.033-7.462,2.903l-2.802,6.326c-1.665-0.118-3.339-0.197-5.028-0.197H66.546v-3.305
		c0-3.133-2.54-5.661-5.666-5.661H33.979c-3.127,0-5.658,2.528-5.658,5.661v3.305H16.519l4.286,24.55H5.664
		c-3.129,0-5.664,2.526-5.664,5.659v69.844c0,3.133,2.535,5.672,5.664,5.672h29.319l5.603,32.091H226.94
		c2.774,11.297,10.625,32.428,32.181,47.77c12.773,9.084,31.716,13.697,56.323,13.697c8.04,0,15.327-0.515,20.969-1.067
		l37.236,151.334c0.243,3.107,2.961,5.45,6.074,5.208l126.119-0.262c3.118-0.239,5.457-2.961,5.22-6.085L460.173,217.1z
		 M315.449,268.013c-21.297,0-37.932-3.824-48.115-11.069c-15.815-11.262-22.728-26.594-25.662-36.235h60.525
		c-4.329,11.078-10.637,22.607-18.397,25.521c-2.198,0.818-3.305,3.272-2.482,5.463c0.635,1.71,2.255,2.758,3.973,2.758
		c0.496,0,1-0.08,1.486-0.265c11.906-4.465,19.907-20.564,24.559-33.478h10.222l11.447,46.49
		C328.064,267.647,322.013,268.013,315.449,268.013z"/>
</g>
<g>
</g>
<g>
</g>
<g>
</g>
<g>
</g>
<g>
</g>
<g>
</g>
<g>
</g>
<g>
</g>
<g>
</g>
<g>
</g>
<g>
</g>
<g>
</g>
<g>
</g>
<g>
</g>
<g>
</g>
</svg>
