<?xml version="1.0" encoding="iso-8859-1"?>
<!-- Generator: Adobe Illustrator 16.0.0, SVG Export Plug-In . SVG Version: 6.00 Build 0)  -->
<!DOCTYPE svg PUBLIC "-//W3C//DTD SVG 1.1//EN" "http://www.w3.org/Graphics/SVG/1.1/DTD/svg11.dtd">
<svg version="1.1" id="Capa_1" xmlns="http://www.w3.org/2000/svg" xmlns:xlink="http://www.w3.org/1999/xlink" x="0px" y="0px"
	 width="196.254px" height="196.254px" viewBox="0 0 196.254 196.254" style="enable-background:new 0 0 196.254 196.254;"
	 xml:space="preserve">
<g>
	<path d="M168.29,37.558h-12.896C149.246,14.689,127.919,0,98.233,0c-29.69,0-50.996,14.689-57.151,37.558H27.963
		c-1.948,0-3.526,1.583-3.526,3.517c0,1.945,1.579,3.526,3.526,3.526h11.792c-0.285,2.256-0.675,4.456-0.675,6.853v31.495
		c-0.307,0.815-0.314,1.713,0,2.502v23.129c0,32.604,26.533,59.162,59.153,59.162c1.948,0,3.523-1.579,3.523-3.527V84.212
		c0-1.545-1.012-2.897-2.487-3.376c-1.446-0.465-3.08,0.126-3.941,1.398c-0.088,0.148-8.846,12.8-22.271,13.825
		c-8.732,0.806-17.821-3.707-26.92-13.01V59.216c0.102,0.164,0.11,0.345,0.21,0.495c3.731,5.504,9.375,9.199,15.873,10.425
		c1.587,0.307,3.182,0.473,4.753,0.473c4.907,0,9.71-1.469,13.854-4.28c3.729-2.521,6.248-6.118,8.119-10.065
		c2.779,4.136,4.412,9.139,4.412,14.509c0,1.94,1.587,3.515,3.523,3.515h2.477c1.936,0,3.514-1.575,3.514-3.515
		c0-5.37,1.641-10.365,4.42-14.525c1.876,3.949,4.396,7.56,8.115,10.081c4.14,2.811,8.937,4.28,13.846,4.28
		c1.579,0,3.174-0.167,4.745-0.473c6.532-1.226,12.167-4.921,15.877-10.411c0.229-0.32,0.245-0.719,0.453-1.042v23.95
		c-4.809,8.448-10.343,12.982-16.438,13.459c-12.082,1.211-23.96-14.164-24.061-14.314c-0.914-1.192-2.477-1.647-3.925-1.192
		c-1.437,0.487-2.402,1.813-2.402,3.328l0.014,71.821c0.427,10.396,3.109,18.867,7.896,25.415H80.429
		c-0.118-0.144-0.096-0.328-0.238-0.469L44.34,151.611c-1.499-1.203-3.723-0.998-4.945,0.513c-1.234,1.511-0.998,3.734,0.509,4.953
		l29.665,24.057H39.034c-1.948,0-3.527,1.571-3.527,3.519c0,1.932,1.579,3.519,3.527,3.519h79.363
		c8.816,6.6,19.496,8.083,26.97,8.083c5.182,0,8.816-0.67,9.169-0.737c1.655-0.317,2.854-1.788,2.854-3.459V84.296
		c0.196-0.675,0.196-1.38,0-2.01V51.453c0-2.396-0.385-4.588-0.678-6.853h11.578c1.947,0,3.526-1.581,3.526-3.526
		C171.816,39.141,170.221,37.558,168.29,37.558z M150.34,188.977c-5.727,0.496-18.879,0.721-28.372-6.809
		c-7.069-5.619-10.924-14.619-11.409-26.586V92.79c5.554,5.085,14.387,10.944,23.876,10.307c5.871-0.444,11.193-3.282,15.905-8.403
		V188.977z M73.652,103.073c9.131-0.718,16.32-5.435,21.055-9.708v67.223c-27.1-1.8-48.578-24.434-48.578-51.992V92.668
		C55.164,100.308,64.341,103.818,73.652,103.073z M76.886,60.504c-3.925,2.659-8.636,3.641-13.343,2.733
		c-4.665-0.89-8.716-3.543-11.385-7.468c-2.254-3.326-2.998-7.222-2.747-11.163h4.631c0.4,6.39,4.476,11.884,10.622,13.006
		c6.566,1.22,12.79-3.02,15.198-9.606c1.382,0.775,2.679,1.671,3.901,2.669C82.587,54.639,80.349,58.149,76.886,60.504z
		 M98.124,58.667c-1.633-4.14-4.294-7.67-7.35-10.808c-0.068-0.088-0.172-0.128-0.241-0.216
		c-6.023-6.059-14.126-10.068-23.325-10.068H48.451C55.164,16.737,76.66,7.057,98.233,7.057c21.574,0,43.086,9.664,49.778,30.517
		h-18.983c-9.196,0-17.308,4.025-23.339,10.084c-0.062,0.088-0.156,0.126-0.21,0.2C102.416,50.997,99.756,54.489,98.124,58.667z
		 M132.695,63.237c-4.66,0.907-9.394-0.074-13.316-2.733c-3.467-2.354-5.715-5.865-6.869-9.828c1.202-1.02,2.505-1.894,3.892-2.669
		c2.408,6.586,8.648,10.826,15.212,9.606c6.132-1.146,10.211-6.616,10.624-13.006h4.616c0.245,3.941-0.48,7.837-2.745,11.163
		C141.428,59.694,137.38,62.323,132.695,63.237z"/>
</g>
<g>
</g>
<g>
</g>
<g>
</g>
<g>
</g>
<g>
</g>
<g>
</g>
<g>
</g>
<g>
</g>
<g>
</g>
<g>
</g>
<g>
</g>
<g>
</g>
<g>
</g>
<g>
</g>
<g>
</g>
</svg>
