<?xml version="1.0" encoding="iso-8859-1"?>
<!-- Generator: Adobe Illustrator 17.1.0, SVG Export Plug-In . SVG Version: 6.00 Build 0)  -->
<!DOCTYPE svg PUBLIC "-//W3C//DTD SVG 1.1//EN" "http://www.w3.org/Graphics/SVG/1.1/DTD/svg11.dtd">
<svg version="1.1" id="Capa_1" xmlns="http://www.w3.org/2000/svg" xmlns:xlink="http://www.w3.org/1999/xlink" x="0px" y="0px"
	 viewBox="0 0 296 296" style="enable-background:new 0 0 296 296;" xml:space="preserve">
<g>
	<path d="M174.833,98H131.5V80c0-5.919-3-11.074-8-13.842V8c0-4.418-3.582-8-8-8s-8,3.582-8,8v58.158c-4,2.768-8,7.923-8,13.842
		v24.598c-11,7.155-18,19.439-18,33.402v118c0,22.092,18.241,40,40.333,40h53c22.092,0,39.667-17.908,39.667-40V138
		C214.5,115.908,196.925,98,174.833,98z M109.499,231.665c-4.786,0-8.666-3.88-8.666-8.666c0-4.786,3.88-8.666,8.666-8.666
		s8.666,3.88,8.666,8.666C118.165,227.785,114.285,231.665,109.499,231.665z M109.499,262.665c-4.786,0-8.666-3.88-8.666-8.666
		c0-4.786,3.88-8.666,8.666-8.666s8.666,3.88,8.666,8.666C118.165,258.785,114.285,262.665,109.499,262.665z M148.833,262.665
		c-4.786,0-8.666-3.88-8.666-8.666c0-4.786,3.88-8.666,8.666-8.666c4.786,0,8.666,3.88,8.666,8.666
		C157.499,258.785,153.619,262.665,148.833,262.665z M148.833,231.665c-4.786,0-8.666-3.88-8.666-8.666
		c0-4.786,3.88-8.666,8.666-8.666c4.786,0,8.666,3.88,8.666,8.666C157.499,227.785,153.619,231.665,148.833,231.665z
		 M188.167,262.665c-4.786,0-8.666-3.88-8.666-8.666c0-4.786,3.88-8.666,8.666-8.666c4.786,0,8.666,3.88,8.666,8.666
		C196.833,258.785,192.953,262.665,188.167,262.665z M188.167,231.665c-4.786,0-8.666-3.88-8.666-8.666
		c0-4.786,3.88-8.666,8.666-8.666c4.786,0,8.666,3.88,8.666,8.666C196.833,227.785,192.953,231.665,188.167,231.665z M196.5,173
		c0,13.807-11.193,25-25,25h-46c-13.807,0-25-11.193-25-25v-33c0-13.807,11.193-25,25-25h46c13.807,0,25,11.193,25,25V173z"/>
</g>
<g>
</g>
<g>
</g>
<g>
</g>
<g>
</g>
<g>
</g>
<g>
</g>
<g>
</g>
<g>
</g>
<g>
</g>
<g>
</g>
<g>
</g>
<g>
</g>
<g>
</g>
<g>
</g>
<g>
</g>
</svg>
