<?xml version="1.0" encoding="iso-8859-1"?>
<!-- Generator: Adobe Illustrator 19.0.0, SVG Export Plug-In . SVG Version: 6.00 Build 0)  -->
<svg version="1.1" id="Capa_1" xmlns="http://www.w3.org/2000/svg" xmlns:xlink="http://www.w3.org/1999/xlink" x="0px" y="0px"
	 viewBox="0 0 64 64" style="enable-background:new 0 0 64 64;" xml:space="preserve">
<g>
	<path d="M63.414,18l-4.5-4.5l4.793-4.793l-1.414-1.414L57.5,12.086l-5.793-5.793c-0.391-0.391-1.023-0.391-1.414,0L47,9.586
		l-6.793-6.793c-0.391-0.391-1.023-0.391-1.414,0L28.5,13.086l-5.293-5.293c-0.391-0.391-1.023-0.391-1.414,0L18.5,11.086
		l-6.293-6.293c-0.391-0.391-1.023-0.391-1.414,0L5,10.586L1.707,7.293C1.52,7.106,1.265,7,1,7H0v2h0.586l9,9H0v2h26.886
		c-2.037,1.498-4.097,3.129-6.018,5.026c-2.092,2.067-5.593,5.526-5.344,9.04c0.106,1.501,0.975,2.999,2.383,4.11
		c1.977,1.561,4.298,2.406,6.543,3.224c2.61,0.95,5.076,1.848,6.945,3.778c0.986,1.018,1.334,1.968,1.064,2.904
		c-0.677,2.35-5.132,6.046-22.512,10.308l-0.733,0.181C6.405,59.278,3.113,60,0,60v2c3.331,0,6.773-0.752,9.701-1.488l0.722-0.178
		c14.907-3.655,22.744-7.481,23.958-11.697c0.479-1.662-0.042-3.294-1.549-4.85c-2.189-2.26-4.99-3.28-7.698-4.266
		c-2.193-0.798-4.264-1.553-5.988-2.914c-0.968-0.764-1.561-1.742-1.627-2.683c-0.184-2.597,2.908-5.651,4.801-7.522
		c2.454-2.424,5.245-4.459,7.893-6.336L30.165,20h1.564c-0.025,0.029-0.048,0.056-0.073,0.086c-1.944,2.268-4.365,5.091-3.836,7.954
		c0.289,1.564,1.511,2.942,3.44,3.88c1.429,0.694,2.947,1.085,4.416,1.461c0.959,0.246,1.866,0.479,2.75,0.79
		c2.807,0.986,5.367,2.817,7.209,5.155c1.447,1.837,2.324,3.825,2.536,5.75c0.301,2.737-0.727,5.217-1.814,7.843l-0.088,0.214
		c-1.364,3.294-2.982,6.249-5.09,9.298l1.645,1.138c2.192-3.169,3.874-6.242,5.293-9.671l0.088-0.213
		c1.137-2.744,2.311-5.58,1.955-8.827c-0.253-2.297-1.274-4.638-2.953-6.769c-2.074-2.632-4.957-4.693-8.117-5.804
		c-0.967-0.34-1.958-0.595-2.917-0.841c-1.436-0.369-2.792-0.717-4.039-1.323c-0.778-0.378-2.117-1.198-2.347-2.445
		c-0.355-1.923,1.808-4.447,3.388-6.289c0.431-0.503,0.827-0.968,1.153-1.388H64v-2L63.414,18L63.414,18z M11.5,6.914l5.586,5.586
		L12,17.586L6.414,12L11.5,6.914z M22.5,9.914l5.293,5.293c0.391,0.391,1.023,0.391,1.414,0L39.5,4.914l6.793,6.793
		c0.391,0.391,1.023,0.391,1.414,0L51,8.414L60.586,18H14.414L22.5,9.914z"/>
	<path d="M28,8c2.206,0,4-1.794,4-4s-1.794-4-4-4s-4,1.794-4,4S25.794,8,28,8z M28,2c1.103,0,2,0.897,2,2s-0.897,2-2,2s-2-0.897-2-2
		S26.897,2,28,2z"/>
	<path d="M49,26h-2v2.556C46.409,28.212,45.732,28,45,28v2c1.103,0,2,0.897,2,2h2c0-1.103,0.897-2,2-2v-2
		c-0.732,0-1.409,0.212-2,0.556V26z"/>
	<path d="M62,39h-2v2.556C59.409,41.212,58.732,41,58,41v2c1.103,0,2,0.897,2,2h2c0-1.103,0.897-2,2-2v-2
		c-0.732,0-1.409,0.212-2,0.556V39z"/>
	<path d="M57,58h-2v2.556C54.409,60.212,53.732,60,53,60v2c1.103,0,2,0.897,2,2h2c0-1.103,0.897-2,2-2v-2
		c-0.732,0-1.409,0.212-2,0.556V58z"/>
	<path d="M2,29h2c0-1.103,0.897-2,2-2v-2c-0.732,0-1.409,0.212-2,0.556V23H2v2.556C1.409,25.212,0.732,25,0,25v2
		C1.103,27,2,27.897,2,29z"/>
	<path d="M14,44v2.556C13.409,46.212,12.732,46,12,46v2c1.103,0,2,0.897,2,2h2c0-1.103,0.897-2,2-2v-2c-0.732,0-1.409,0.212-2,0.556
		V44H14z"/>
	<rect x="53" y="33" width="2" height="2"/>
	<rect x="57" y="33" width="2" height="2"/>
	<rect x="61" y="33" width="2" height="2"/>
	<rect x="2" y="37" width="2" height="2"/>
	<rect x="6" y="37" width="2" height="2"/>
	<rect x="10" y="37" width="2" height="2"/>
	<rect x="24" y="28" width="2" height="2"/>
	<rect x="32" y="60" width="2" height="2"/>
	<rect x="27" y="62" width="2" height="2"/>
	<rect x="11" y="62" width="2" height="2"/>
	<path d="M21.429,30.956c-0.152,1.136-0.215,2.338,0.35,3.425c0.897,1.724,2.852,2.251,4.497,2.693
		c1.479,0.399,2.942,0.905,4.35,1.505c0.566,0.241,2.289,0.975,2.388,1.581l1.974-0.322c-0.276-1.693-2.343-2.573-3.577-3.099
		c-1.492-0.636-3.045-1.174-4.686-1.616c-1.317-0.354-2.679-0.721-3.17-1.666c-0.309-0.594-0.251-1.426-0.142-2.237L21.429,30.956z"
		/>
	<path d="M45.18,47.008c0.477-4.278-0.865-7.774-3.683-9.591c-1.062-0.684-2.205-1.126-3.309-1.553l-0.722,1.865
		c1.011,0.391,2.057,0.795,2.947,1.369c3.062,1.975,2.963,6.035,2.779,7.688L45.18,47.008z"/>
	<path d="M37.309,53.215c0.966-1.863,1.878-3.623,1.909-6.03c0.026-2.033-0.578-3.962-1.704-5.433l-1.588,1.216
		c0.854,1.115,1.312,2.604,1.292,4.191c-0.025,1.933-0.757,3.346-1.685,5.136L37.309,53.215z"/>
	<path d="M42.945,48.768c-0.606,4.304-2.97,8.533-6.485,11.601l1.315,1.507c3.872-3.38,6.478-8.056,7.15-12.829L42.945,48.768z"/>
	<path d="M32.468,53.588c-4.472,4.266-10.783,6.295-16.352,8.085l0.612,1.904c5.773-1.856,12.316-3.96,17.121-8.542L32.468,53.588z"
		/>
</g>
<g>
</g>
<g>
</g>
<g>
</g>
<g>
</g>
<g>
</g>
<g>
</g>
<g>
</g>
<g>
</g>
<g>
</g>
<g>
</g>
<g>
</g>
<g>
</g>
<g>
</g>
<g>
</g>
<g>
</g>
</svg>
