<?xml version="1.0" encoding="iso-8859-1"?>
<!-- Generator: Adobe Illustrator 19.1.0, SVG Export Plug-In . SVG Version: 6.00 Build 0)  -->
<svg version="1.1" id="Capa_1" xmlns="http://www.w3.org/2000/svg" xmlns:xlink="http://www.w3.org/1999/xlink" x="0px" y="0px"
	 viewBox="0 0 325.641 325.641" style="enable-background:new 0 0 325.641 325.641;" xml:space="preserve">
<g>
	<path d="M301.868,106.898c0.501-3.863,0.752-7.507,0.752-11.054c0-49.107-39.956-89.057-89.069-89.057
		c-29.409,0-57.032,14.769-73.536,38.934c-8.284-4.274-17.462-6.51-26.883-6.51c-30.482,0-55.618,23.349-58.458,53.323
		C23.137,97.926,0,124.957,0,157.554c0,36.421,29.634,66.042,66.055,66.042h75.862l-19.338,38.272h40.81l-26.806,56.987
		l75.862-71.119l-40.521,0.039l14.023-24.178h73.645c36.414,0,66.049-29.621,66.049-66.042
		C325.648,137.746,317.036,119.494,301.868,106.898z M259.593,210.749H66.061c-29.332,0-53.201-23.863-53.201-53.188
		c0-27.783,20.868-50.541,48.548-52.944l5.855-0.771v-5.893c0-25.309,20.579-45.894,45.881-45.894
		c9.081,0,17.873,2.661,25.425,7.699l5.688,3.792l3.432-5.913c13.631-23.439,38.869-38.002,65.875-38.002
		c42.025,0,76.216,34.184,76.216,76.203c0,3.972-0.379,8.136-1.157,12.732l-0.656,3.895l3.175,2.346
		c13.76,10.167,21.652,25.746,21.652,42.745C312.794,186.886,288.931,210.749,259.593,210.749z M130.683,283.828l-0.019,6.427
		c-0.013,3.541-2.886,6.401-6.427,6.401c-0.006,0-0.013,0-0.019,0c-3.554-0.013-6.42-2.886-6.408-6.44l0.019-6.427
		c0.013-3.541,2.886-6.414,6.427-6.414c0.006,0,0.013,0,0.019,0C127.83,277.389,130.696,280.274,130.683,283.828z M217.143,283.828
		l-0.026,6.427c-0.013,3.541-2.886,6.401-6.427,6.401h-0.013c-3.554-0.013-6.427-2.886-6.414-6.44l0.026-6.427
		c0.013-3.541,2.886-6.414,6.427-6.414h0.013C214.284,277.389,217.156,280.274,217.143,283.828z M87.533,245.177l-0.064,19.28
		c-0.013,3.541-2.886,6.401-6.427,6.401c-0.006,0-0.013,0-0.019,0c-3.554-0.013-6.42-2.898-6.408-6.44l0.064-19.281
		c0.013-3.554,2.886-6.414,6.427-6.414c0.006,0,0.013,0,0.019,0C84.68,238.738,87.546,241.623,87.533,245.177z M87.418,283.738
		l-0.051,15.816c-0.013,3.541-2.886,6.401-6.427,6.401c-0.006,0-0.013,0-0.019,0c-3.554-0.013-6.42-2.898-6.408-6.44l0.051-15.816
		c0.013-3.554,2.886-6.414,6.427-6.414c0.006,0,0.013,0,0.019,0C84.558,277.299,87.431,280.184,87.418,283.738z M260.325,283.738
		l-0.051,15.816c-0.013,3.541-2.886,6.401-6.427,6.401c-0.013,0-0.013,0-0.026,0c-3.554-0.013-6.414-2.898-6.401-6.44l0.051-15.816
		c0.013-3.554,2.886-6.414,6.427-6.414h0.013C257.459,277.299,260.338,280.184,260.325,283.738z M260.435,245.177l-0.064,19.28
		c-0.013,3.541-2.886,6.401-6.427,6.401h-0.013c-3.554-0.013-6.427-2.898-6.414-6.44l0.064-19.281
		c0.013-3.554,2.886-6.414,6.427-6.414c0.013,0,0.013,0,0.026,0C257.588,238.738,260.447,241.623,260.435,245.177z"/>
</g>
<g>
</g>
<g>
</g>
<g>
</g>
<g>
</g>
<g>
</g>
<g>
</g>
<g>
</g>
<g>
</g>
<g>
</g>
<g>
</g>
<g>
</g>
<g>
</g>
<g>
</g>
<g>
</g>
<g>
</g>
</svg>
