<?xml version="1.0" encoding="iso-8859-1"?>
<!-- Generator: Adobe Illustrator 19.1.0, SVG Export Plug-In . SVG Version: 6.00 Build 0)  -->
<svg version="1.1" id="Capa_1" xmlns="http://www.w3.org/2000/svg" xmlns:xlink="http://www.w3.org/1999/xlink" x="0px" y="0px"
	 viewBox="0 0 64 64" style="enable-background:new 0 0 64 64;" xml:space="preserve">
<g>
	<g>
		<g>
			<path d="M36.195,25.611l-14,19L23,46.203h4.834l-1.823,11.848l1.793,0.745l14-19L41,38.203h-4.834l1.823-11.848L36.195,25.611z
				 M39.021,40.203L28.606,54.338l1.382-8.982L29,44.203h-4.021L35.394,30.07l-1.382,8.982L35,40.203H39.021z"/>
			<path d="M55.979,25.262C55.48,13.94,46.006,5.204,34,5.204c-10.599,0-19.63,6.68-21.811,16H11c-5.962,0-11,5.495-11,12
				c0,6.271,4.729,11,11,11h7v-2h-7c-5.131,0-9-3.869-9-9c0-5.42,4.122-10,9-10h2.83l0.153-0.815
				C15.637,13.59,24.055,7.204,34,7.204c11.215,0,20,8.346,20,19v1h1c4.125,0,7,4.216,7,8c0,3.991-3.009,7-7,7h-9v2h9
				c5.131,0,9-3.869,9-9C64,30.674,60.818,25.843,55.979,25.262z"/>
		</g>
	</g>
	<g>
	</g>
	<g>
	</g>
	<g>
	</g>
	<g>
	</g>
	<g>
	</g>
	<g>
	</g>
	<g>
	</g>
	<g>
	</g>
	<g>
	</g>
	<g>
	</g>
	<g>
	</g>
	<g>
	</g>
	<g>
	</g>
	<g>
	</g>
	<g>
	</g>
</g>
<g>
</g>
<g>
</g>
<g>
</g>
<g>
</g>
<g>
</g>
<g>
</g>
<g>
</g>
<g>
</g>
<g>
</g>
<g>
</g>
<g>
</g>
<g>
</g>
<g>
</g>
<g>
</g>
<g>
</g>
</svg>
